<svg id="Layer_1" data-name="Layer 1" xmlns="http://www.w3.org/2000/svg" viewBox="0 0 96 96"><path d="M54.54,94a18.65,18.65,0,0,1-2.23-.13,19.78,19.78,0,0,1-4.9-38.1V9.18a7.18,7.18,0,1,1,14.35,0V55.76A19.79,19.79,0,0,1,54.54,94Zm0-90a5.18,5.18,0,0,0-5.17,5.18V56.46a1,1,0,0,1-.68.95,17.81,17.81,0,1,0,11.71,0,1,1,0,0,1-.68-.95V9.18A5.18,5.18,0,0,0,54.58,4Z"/><path d="M54.58,85.59A11.39,11.39,0,1,1,66,74.2,11.4,11.4,0,0,1,54.58,85.59Zm0-20.78A9.39,9.39,0,1,0,64,74.2,9.41,9.41,0,0,0,54.58,64.81Z"/><path d="M54.58,64.81a1,1,0,0,1-1-1V14.26a1,1,0,0,1,2,0V63.81A1,1,0,0,1,54.58,64.81Z"/><path d="M77.58,9.79H68.76a1,1,0,0,1,0-2h8.82a1,1,0,1,1,0,2Z"/><path d="M73.17,19.75H68.76a1,1,0,0,1,0-2h4.41a1,1,0,0,1,0,2Z"/><path d="M77.58,29.71H68.76a1,1,0,0,1,0-2h8.82a1,1,0,0,1,0,2Z"/><path d="M73.17,39.66H68.76a1,1,0,0,1,0-2h4.41a1,1,0,0,1,0,2Z"/><path d="M77.58,49.62H68.76a1,1,0,0,1,0-2h8.82a1,1,0,0,1,0,2Z"/><path d="M42,40.84a11,11,0,1,1,7-19.38,1,1,0,0,1,.12,1.41,1,1,0,0,1-1.4.13,9,9,0,1,0,0,13.77,1,1,0,0,1,1.28,1.54A11,11,0,0,1,42,40.84Z"/><path d="M42,13.24a1,1,0,0,1-1-1v-6a1,1,0,0,1,2,0v6A1,1,0,0,1,42,13.24Z"/><path d="M29.56,18.41a1,1,0,0,1-.71-.29l-4.22-4.23A1,1,0,0,1,26,12.48l4.23,4.22a1,1,0,0,1,0,1.42A1,1,0,0,1,29.56,18.41Z"/><path d="M24.39,30.89h-6a1,1,0,0,1,0-2h6a1,1,0,0,1,0,2Z"/><path d="M25.34,47.59a1,1,0,0,1-.71-1.71l4.22-4.22a1,1,0,0,1,1.42,0,1,1,0,0,1,0,1.41L26,47.29A1,1,0,0,1,25.34,47.59Z"/><path d="M42,54.5a1,1,0,0,1-1-1v-6a1,1,0,0,1,2,0v6A1,1,0,0,1,42,54.5Z"/></svg>